<?xml version="1.0" standalone="no"?>
<!DOCTYPE svg PUBLIC "-//W3C//DTD SVG 20010904//EN"
 "http://www.w3.org/TR/2001/REC-SVG-20010904/DTD/svg10.dtd">
<svg version="1.0" xmlns="http://www.w3.org/2000/svg"
 width="128.000000pt" height="128.000000pt" viewBox="0 0 128.000000 128.000000"
 preserveAspectRatio="xMidYMid meet">
<metadata>
Created by potrace 1.14, written by Peter Selinger 2001-2017
</metadata>
<g transform="translate(0.000000,128.000000) scale(0.100000,-0.100000)"
fill="#000000" stroke="none">
<path d="M56 1054 c-17 -44 -16 -44 588 -42 l571 3 0 25 0 25 -576 3 c-526 2
-577 1 -583 -14z"/>
<path d="M239 840 c-11 -36 -24 -74 -29 -85 -5 -11 -25 -73 -45 -139 -21 -65
-50 -156 -66 -203 l-28 -84 86 3 86 3 15 51 14 51 89 0 c99 0 101 -1 114 -70
l7 -37 84 0 c46 0 84 3 84 8 0 4 -42 133 -93 286 l-93 279 -102 1 -102 1 -21
-65z m181 -265 c0 -6 -24 -11 -55 -12 -35 0 -55 4 -55 11 0 6 12 60 26 119
l27 108 28 -108 c15 -59 28 -113 29 -118z"/>
<path d="M850 895 c-50 -16 -96 -54 -111 -92 -14 -37 -11 -101 7 -138 18 -38
38 -54 144 -110 76 -40 93 -63 70 -90 -21 -25 -96 -18 -216 20 -20 6 -21 3
-19 -60 1 -66 1 -67 36 -82 45 -20 173 -24 227 -8 106 32 154 115 128 221 -10
44 -50 78 -146 127 -61 31 -84 48 -86 64 -7 45 80 49 177 9 13 -6 21 5 39 49
13 32 19 60 14 64 -38 35 -189 50 -264 26z"/>
</g>
</svg>
